<svg id="visual" viewBox="0 0 900 600" width="900" height="600" xmlns="http://www.w3.org/2000/svg" xmlns:xlink="http://www.w3.org/1999/xlink" version="1.1"><rect x="0" y="0" width="900" height="600" fill="#011524"></rect><path d="M0 376L21.5 371.5C43 367 86 358 128.8 350C171.7 342 214.3 335 257.2 322.5C300 310 343 292 385.8 282.3C428.7 272.7 471.3 271.3 514.2 290.8C557 310.3 600 350.7 642.8 364C685.7 377.3 728.3 363.7 771.2 356C814 348.3 857 346.7 878.5 345.8L900 345L900 0L878.5 0C857 0 814 0 771.2 0C728.3 0 685.7 0 642.8 0C600 0 557 0 514.2 0C471.3 0 428.7 0 385.8 0C343 0 300 0 257.2 0C214.3 0 171.7 0 128.8 0C86 0 43 0 21.5 0L0 0Z" fill="#ff3232"></path><path d="M0 208L21.5 205.5C43 203 86 198 128.8 226.3C171.7 254.7 214.3 316.3 257.2 334.7C300 353 343 328 385.8 315C428.7 302 471.3 301 514.2 294.5C557 288 600 276 642.8 283.3C685.7 290.7 728.3 317.3 771.2 322.7C814 328 857 312 878.5 304L900 296L900 0L878.5 0C857 0 814 0 771.2 0C728.3 0 685.7 0 642.8 0C600 0 557 0 514.2 0C471.3 0 428.7 0 385.8 0C343 0 300 0 257.2 0C214.3 0 171.7 0 128.8 0C86 0 43 0 21.5 0L0 0Z" fill="#f80853"></path><path d="M0 184L21.5 197C43 210 86 236 128.8 256.3C171.7 276.7 214.3 291.3 257.2 272.8C300 254.3 343 202.7 385.8 201C428.7 199.3 471.3 247.7 514.2 266.8C557 286 600 276 642.8 279.3C685.7 282.7 728.3 299.3 771.2 292.5C814 285.7 857 255.3 878.5 240.2L900 225L900 0L878.5 0C857 0 814 0 771.2 0C728.3 0 685.7 0 642.8 0C600 0 557 0 514.2 0C471.3 0 428.7 0 385.8 0C343 0 300 0 257.2 0C214.3 0 171.7 0 128.8 0C86 0 43 0 21.5 0L0 0Z" fill="#e8006f"></path><path d="M0 179L21.5 172.7C43 166.3 86 153.7 128.8 156.5C171.7 159.3 214.3 177.7 257.2 193.3C300 209 343 222 385.8 213.7C428.7 205.3 471.3 175.7 514.2 156.5C557 137.3 600 128.7 642.8 137.3C685.7 146 728.3 172 771.2 180.5C814 189 857 180 878.5 175.5L900 171L900 0L878.5 0C857 0 814 0 771.2 0C728.3 0 685.7 0 642.8 0C600 0 557 0 514.2 0C471.3 0 428.7 0 385.8 0C343 0 300 0 257.2 0C214.3 0 171.7 0 128.8 0C86 0 43 0 21.5 0L0 0Z" fill="#cf0088"></path><path d="M0 144L21.5 149C43 154 86 164 128.8 153.7C171.7 143.3 214.3 112.7 257.2 95.3C300 78 343 74 385.8 89.7C428.7 105.3 471.3 140.7 514.2 159.3C557 178 600 180 642.8 166.7C685.7 153.3 728.3 124.7 771.2 109.3C814 94 857 92 878.5 91L900 90L900 0L878.5 0C857 0 814 0 771.2 0C728.3 0 685.7 0 642.8 0C600 0 557 0 514.2 0C471.3 0 428.7 0 385.8 0C343 0 300 0 257.2 0C214.3 0 171.7 0 128.8 0C86 0 43 0 21.5 0L0 0Z" fill="#a100a6"></path><path d="M0 76L21.5 76.8C43 77.7 86 79.3 128.8 83.2C171.7 87 214.3 93 257.2 99.7C300 106.3 343 113.7 385.8 107C428.7 100.3 471.3 79.7 514.2 74C557 68.3 600 77.7 642.8 85.8C685.7 94 728.3 101 771.2 88.7C814 76.3 857 44.7 878.5 28.8L900 13L900 0L878.5 0C857 0 814 0 771.2 0C728.3 0 685.7 0 642.8 0C600 0 557 0 514.2 0C471.3 0 428.7 0 385.8 0C343 0 300 0 257.2 0C214.3 0 171.7 0 128.8 0C86 0 43 0 21.5 0L0 0Z" fill="#3c00c5"></path></svg>